:SAMPLES-PER-SECOND 30
:FULLY-SPECIFIED
:DEGREES
522
root  -3.15908 39.73 0.176542 8.99832 -56.4461 -5.34291
RightUpLeg  -13.2111 4.96488 6.90912
RightLeg  6.56951 29.1714 3.20794
RightFoot  1.16214 -0.132224 0.946474
RightToes  1.74624e-010 -3.18055e-015 -2.98177e-016
Spine  2.82174 -9.63599 -11.668
Spine1  -19.6609 -9.31474 30.021
HEad  29.8026 24.8719 -6.6363
LeftShoulder1  -3.88251e-019 9.70628e-020 -3.87848e-018
LeftArm  -38.2771 -5.22977 13.9466
LeftForeArm  179.932 -68.1345 154.125
LeftHand  -2.36874 -10.195 18.2295
RightShoulder  -0.818331 -5.73137 -6.98103
RightArm  -47.0282 -15.0958 -9.08447
RightForeArm  -157.356 55.9617 -147.11
RightHand  -3.61854 10.3108 -26.2357
LeftUpLeg  3.53186 10.4861 1.51695
LeftLeg  13.6665 51.7217 8.70113
LeftFoot  -3.60499 0.850625 -10.3341
LeftToes  7.37594e-011 2.64622e-011 -6.25182e-011
523
root  -3.63023 39.7011 0.215109 10.2227 -58.483 -6.53042
RightUpLeg  -12.9058 5.17856 7.7972
RightLeg  7.13577 30.8603 3.89185
RightFoot  0.59944 -0.094159 0.688608
RightToes  1.74624e-010 -3.18055e-015 -2.98177e-016
Spine  2.17369 -10.4223 -12.6686
Spine1  -19.342 -10.088 31.8186
HEad  31.7262 24.8829 -5.08432
LeftShoulder1  -3.88251e-019 9.70628e-020 -3.87848e-018
LeftArm  -39.3653 -2.53731 14.9126
LeftForeArm  174.817 -62.4259 160.344
LeftHand  -2.16813 -9.67538 17.3169
RightShoulder  -0.801949 -5.5541 -6.70241
RightArm  -47.308 -17.6374 -10.2927
RightForeArm  -162.074 55.5871 -147.983
RightHand  -3.5796 9.34976 -27.5747
LeftUpLeg  4.1354 12.5887 2.42507
LeftLeg  14.3916 50.5502 9.65974
LeftFoot  -2.79427 1.05044 -11.6932
LeftToes  7.37594e-011 2.64622e-011 -6.25182e-011
524
root  -4.08681 39.6939 0.237808 11.3816 -60.2931 -7.50216
RightUpLeg  -12.562 5.26903 8.46663
RightLeg  7.3764 32.4676 4.52988
RightFoot  0.24491 -0.0639242 0.46277
RightToes  1.74624e-010 -3.18055e-015 -2.98177e-016
Spine  1.3466 -11.1476 -13.7151
Spine1  -19.0033 -10.7871 33.4063
HEad  33.3653 24.886 -3.85112
LeftShoulder1  -3.88251e-019 9.70628e-020 -3.87848e-018
LeftArm  -40.4677 0.129974 16.3685
LeftForeArm  170.787 -57.0227 164.36
LeftHand  -2.2176 -9.20595 18.255
RightShoulder  -0.76869 -5.22367 -6.15739
RightArm  -47.0385 -19.8282 -12.1214
RightForeArm  -166.835 55.2151 -148.821
RightHand  -3.54228 8.35693 -29.1682
LeftUpLeg  4.65195 14.1619 3.14836
LeftLeg  14.9524 49.6672 10.4033
LeftFoot  -1.70929 1.30738 -13.1
LeftToes  7.37594e-011 2.64622e-011 -6.25182e-011
525
root  -4.50922 39.7018 0.243283 12.3583 -61.9314 -8.32537
RightUpLeg  -12.1055 5.44987 9.05253
RightLeg  7.37871 33.8724 4.90249
RightFoot  0.0695009 -0.0474157 0.329406
RightToes  1.74624e-010 -3.18055e-015 -2.98177e-016
Spine  0.545254 -11.7319 -14.713
Spine1  -18.5624 -11.3809 34.6267
HEad  34.462 24.8873 -2.81314
LeftShoulder1  -3.88251e-019 9.70628e-020 -3.87848e-018
LeftArm  -41.4679 2.70922 18.2549
LeftForeArm  166.808 -52.1078 167.167
LeftHand  -2.48898 -8.83671 20.934
RightShoulder  -0.744617 -5.08441 -5.62562
RightArm  -46.2598 -22.1813 -13.8993
RightForeArm  -172.115 54.6758 -149.875
RightHand  -3.43389 7.34575 -30.431
LeftUpLeg  5.25825 15.2259 3.77686
LeftLeg  15.3695 49.1163 10.9017
LeftFoot  -0.462666 1.60858 -14.4641
LeftToes  7.37594e-011 2.64622e-011 -6.25182e-011
526
root  -4.8811 39.7125 0.22715 13.031 -63.355 -8.9644
RightUpLeg  -11.581 5.70503 9.57626
RightLeg  7.36195 35.055 5.03973
RightFoot  -0.0209034 -0.0351991 0.211803
RightToes  1.74624e-010 -3.18055e-015 -2.98177e-016
Spine  -0.013667 -12.1952 -15.7678
Spine1  -18.0656 -11.9031 35.7316
HEad  35.1738 24.9602 -1.87346
LeftShoulder1  -3.88251e-019 9.70628e-020 -3.87848e-018
LeftArm  -42.112 5.63182 20.2061
LeftForeArm  163.091 -47.4598 169.305
LeftHand  -2.68825 -8.46286 23.1582
RightShoulder  -0.747053 -5.28575 -5.27831
RightArm  -45.068 -25.0355 -15.0127
RightForeArm  -176.625 53.9496 -151.062
RightHand  -3.38099 6.81705 -31.2057
LeftUpLeg  5.93335 16.2384 4.35406
LeftLeg  15.7023 48.266 11.3181
LeftFoot  0.797849 1.93506 -15.7619
LeftToes  7.37594e-011 2.64622e-011 -6.25182e-011
527
root  -5.20151 39.7165 0.191351 13.5511 -64.5496 -9.44511
RightUpLeg  -11.1805 5.87084 9.98563
RightLeg  7.46725 36.1071 5.20864
RightFoot  -0.10448 -0.019393 0.0428952
RightToes  1.74624e-010 -3.18055e-015 -2.98177e-016
Spine  -0.350097 -12.5333 -16.8431
Spine1  -17.7442 -12.2784 36.9323
HEad  35.7814 24.9716 -1.05659
LeftShoulder1  -3.88251e-019 9.70628e-020 -3.87848e-018
LeftArm  -42.4674 8.81472 22.3183
LeftForeArm  160.074 -43.7448 170.763
LeftHand  -2.63641 -7.96443 23.5597
RightShoulder  -0.726489 -5.22405 -4.73368
RightArm  -43.6345 -28.2102 -16.216
RightForeArm  -178.698 53.1011 -152.194
RightHand  -3.47154 6.95996 -31.6521
LeftUpLeg  6.43143 17.8358 4.94197
LeftLeg  16.0441 46.501 11.8286
LeftFoot  1.92597 2.27632 -17.0952
LeftToes  7.37594e-011 2.64622e-011 -6.25182e-011
528
root  -5.48159 39.7143 0.149342 14.214 -65.6066 -9.93572
RightUpLeg  -11.0016 5.91216 10.2863
RightLeg  7.65151 37.0927 5.53393
RightFoot  -0.222736 -0.0106486 -0.0612196
RightToes  1.74624e-010 -3.18055e-015 -2.98177e-016
Spine  -0.66251 -12.6964 -17.5454
Spine1  -17.7351 -12.3806 37.7634
HEad  36.4642 24.7288 -0.280184
LeftShoulder1  -3.88251e-019 9.70628e-020 -3.87848e-018
LeftArm  -42.4422 11.6891 24.7253
LeftForeArm  157.955 -41.9033 171.455
LeftHand  -2.51284 -7.6092 23.1114
RightShoulder  -0.61247 -4.32147 -3.40282
RightArm  -42.1218 -31.3148 -18.4909
RightForeArm  -178.676 52.205 -153.211
RightHand  -3.60206 7.33789 -31.864
LeftUpLeg  6.64737 20.1069 5.58027
LeftLeg  16.3942 44.043 12.4012
LeftFoot  2.87839 2.62043 -18.4568
LeftToes  7.37594e-011 2.64622e-011 -6.25182e-011
